# xmcd
#
# Track frame offsets:
#	150
#	7674
#	24929
#	38728
#	53285
#	66755
#	86712
#	98054
#	116601
#	130589
#	148436
#	170319
#	186697
#
# Disc length: 2632 seconds
#
# Revision: 1
# Processed by: cddbd v1.5.2PL0 Copyright (c) Steve Scherf et al.
# Submitted via: audiograbber 1.83.01
#
DISCID=a20a460d
DTITLE=Hundred Year Flood - Cavalier
DYEAR=2004
DGENRE=Americana
TTITLE0=Intro
TTITLE1=Come On
TTITLE2=Peach Blossom
TTITLE3=Love and Lust
TTITLE4=Jesus Rolled Over
TTITLE5=Lets Fall In Love Again Tonight
TTITLE6=Sweetness Does
TTITLE7=Reel Around The Fountain
TTITLE8=Politics Of The Dead
TTITLE9=You Got Lots Of Time
TTITLE10=Gamblin'
TTITLE11=Have Yer Way
TTITLE12=Outro
EXTD=
EXTT0=
EXTT1=
EXTT2=
EXTT3=
EXTT4=
EXTT5=
EXTT6=
EXTT7=
EXTT8=
EXTT9=
EXTT10=
EXTT11=
EXTT12=
PLAYORDER=
